# xmcd
#
# Track frame offsets:
#	150
#	10169
#	14861
#	21940
#	25804
#	40178
#	44754
#	55409
#	59371
#	72014
#	80575
#	84353
#	89236
#	93535
#	100906
#	110011
#	111702
#	123700
#	128273
#	129804
#	133167
#	139662
#	142849
#	148773
#	155072
#	157029
#	161536
#	166478
#	169420
#	174902
#	184194
#	188544
#	223323
#	229057
#	236422
#	242094
#	248060
#	254156
#	266455
#	273217
#	276973
#	291456
#	304023
#	309052
#	317301
#	327926
#	343297
#	347005
#	350684
#
# Disc length: 4789 seconds
#
# Revision: 2
# Processed by: cddbd v1.5.2PL0 Copyright (c) Steve Scherf et al.
# Submitted via: EZCDAudioConverter 1.3.4.1
#
DISCID=e612b331
DTITLE=Tiny Tim - God Bless Tiny Tim 3/3
DYEAR=2006
DGENRE=
TTITLE0=Frisco Flo
TTITLE1=Radio Spot #2
TTITLE2=Meet The Sun Halfway
TTITLE3=Radio Spot #3
TTITLE4=Hallelujah, Bless The Peace!
TTITLE5=Radio Spot #4
TTITLE6=People Are Strange
TTITLE7=Radio Spot #1
TTITLE8=Little Fairy Princess
TTITLE9=Bunny Nose
TTITLE10=Yum Yum
TTITLE11=Who Stole Baby's Bottle?
TTITLE12=Little Fairy Princess
TTITLE13=Alice Blue Gown
TTITLE14=My Daddy Long Legs
TTITLE15=Pretty Little Cinderella
TTITLE16=I'm A Lonesome Little Raindrop
TTITLE17=Hot And Cold Water
TTITLE18=Tiny's Helpful Hints [LP Version]
TTITLE19=Two Times A Day
TTITLE20=Remember Your Name And Address [LP Version]
TTITLE21=Mickey The Monkey
TTITLE22=Sadie The Seal
TTITLE23=Orange The Orangutan
TTITLE24=Lina The Laughing Hyena
TTITLE25=On The Good Ship Lollipop
TTITLE26=The Name Song
TTITLE27=Tommy Tax
TTITLE28=Hallelujah, Bless The Peace!
TTITLE29=Let's Make The World Of Tomorrow Today
TTITLE30=How To Spell Friendship
TTITLE31=Horror Story - The Lost Job
TTITLE32=They Always Pick On Me
TTITLE33=That Hypnotizing Man
TTITLE34=That's A Good Girl
TTITLE35=She Laughs
TTITLE36=School Days
TTITLE37=Jim, Jim (I Always Knew That You'd Win)
TTITLE38=Stay Home, Little Girl, Stay Home
TTITLE39=Oh! The Woman In Room 13
TTITLE40=My Song Of The Nile
TTITLE41=You Were There
TTITLE42=Let's Find Out Tonight
TTITLE43=The American Pioneer
TTITLE44=It Took A Good Good Woman
TTITLE45=Beloved - Don't You Mind It Honey If The World Goes Wrong
TTITLE46=I Can't Behave When You're Around
TTITLE47=Bill The Buffalo - Zoozical Musicals
TTITLE48=I'm A Lonesome Little Raindrop
EXTD=
EXTT0=
EXTT1=
EXTT2=
EXTT3=
EXTT4=
EXTT5=
EXTT6=
EXTT7=
EXTT8=
EXTT9=
EXTT10=
EXTT11=
EXTT12=
EXTT13=
EXTT14=
EXTT15=
EXTT16=
EXTT17=
EXTT18=
EXTT19=
EXTT20=
EXTT21=
EXTT22=
EXTT23=
EXTT24=
EXTT25=
EXTT26=
EXTT27=
EXTT28=
EXTT29=
EXTT30=
EXTT31=
EXTT32=
EXTT33=
EXTT34=
EXTT35=
EXTT36=
EXTT37=
EXTT38=
EXTT39=
EXTT40=
EXTT41=
EXTT42=
EXTT43=
EXTT44=
EXTT45=
EXTT46=
EXTT47=
EXTT48=
PLAYORDER=
